<svg width="17" height="15" viewBox="0 0 17 15" fill="none" xmlns="http://www.w3.org/2000/svg">
<path d="M2.67837 15H14.3302C15.2229 15 15.8911 14.7882 16.3347 14.3645C16.7782 13.9462 17 13.3161 17 12.4742V2.5258C17 1.68387 16.7782 1.05378 16.3347 0.635524C15.8911 0.211841 15.2229 0 14.3302 0H2.67837C1.78558 0 1.11457 0.211841 0.665329 0.635524C0.221776 1.05378 0 1.68387 0 2.5258V12.4742C0 13.3161 0.221776 13.9462 0.665329 14.3645C1.11457 14.7882 1.78558 15 2.67837 15ZM2.55043 13.6882C2.17511 13.6882 1.8851 13.5904 1.68038 13.3949C1.47566 13.2048 1.37331 12.9223 1.37331 12.5475V4.8642C1.37331 4.48941 1.47566 4.20695 1.68038 4.01684C1.8851 3.82129 2.17511 3.72352 2.55043 3.72352H14.441C14.822 3.72352 15.1149 3.82129 15.3196 4.01684C15.5243 4.20695 15.6267 4.48941 15.6267 4.8642V12.5475C15.6267 12.9223 15.5243 13.2048 15.3196 13.3949C15.1149 13.5904 14.822 13.6882 14.441 13.6882H2.55043ZM6.84094 6.65671H7.3442C7.49206 6.65671 7.59441 6.62955 7.65128 6.57523C7.71383 6.52091 7.74511 6.42314 7.74511 6.28191V5.80119C7.74511 5.65997 7.71383 5.56491 7.65128 5.51602C7.59441 5.46171 7.49206 5.43455 7.3442 5.43455H6.84094C6.69309 5.43455 6.58789 5.46171 6.52534 5.51602C6.46847 5.56491 6.44004 5.65997 6.44004 5.80119V6.28191C6.44004 6.42314 6.46847 6.52091 6.52534 6.57523C6.58789 6.62955 6.69309 6.65671 6.84094 6.65671ZM9.67285 6.65671H10.1761C10.3297 6.65671 10.4349 6.62955 10.4917 6.57523C10.5486 6.52091 10.577 6.42314 10.577 6.28191V5.80119C10.577 5.65997 10.5486 5.56491 10.4917 5.51602C10.4349 5.46171 10.3297 5.43455 10.1761 5.43455H9.67285C9.525 5.43455 9.42265 5.46171 9.36578 5.51602C9.30891 5.56491 9.28048 5.65997 9.28048 5.80119V6.28191C9.28048 6.42314 9.30891 6.52091 9.36578 6.57523C9.42265 6.62955 9.525 6.65671 9.67285 6.65671ZM12.5133 6.65671H13.008C13.1616 6.65671 13.2668 6.62955 13.3236 6.57523C13.3805 6.52091 13.4089 6.42314 13.4089 6.28191V5.80119C13.4089 5.65997 13.3805 5.56491 13.3236 5.51602C13.2668 5.46171 13.1616 5.43455 13.008 5.43455H12.5133C12.3598 5.43455 12.2546 5.46171 12.1977 5.51602C12.1408 5.56491 12.1124 5.65997 12.1124 5.80119V6.28191C12.1124 6.42314 12.1408 6.52091 12.1977 6.57523C12.2546 6.62955 12.3598 6.65671 12.5133 6.65671ZM4.00903 9.32102H4.51229C4.66014 9.32102 4.7625 9.29386 4.81937 9.23954C4.87623 9.18523 4.90467 9.08745 4.90467 8.94623V8.47366C4.90467 8.327 4.87623 8.22922 4.81937 8.18034C4.7625 8.12602 4.66014 8.09886 4.51229 8.09886H4.00903C3.85549 8.09886 3.75029 8.12602 3.69343 8.18034C3.63656 8.22922 3.60813 8.327 3.60813 8.47366V8.94623C3.60813 9.08745 3.63656 9.18523 3.69343 9.23954C3.75029 9.29386 3.85549 9.32102 4.00903 9.32102ZM6.84094 9.32102H7.3442C7.49206 9.32102 7.59441 9.29386 7.65128 9.23954C7.71383 9.18523 7.74511 9.08745 7.74511 8.94623V8.47366C7.74511 8.327 7.71383 8.22922 7.65128 8.18034C7.59441 8.12602 7.49206 8.09886 7.3442 8.09886H6.84094C6.69309 8.09886 6.58789 8.12602 6.52534 8.18034C6.46847 8.22922 6.44004 8.327 6.44004 8.47366V8.94623C6.44004 9.08745 6.46847 9.18523 6.52534 9.23954C6.58789 9.29386 6.69309 9.32102 6.84094 9.32102ZM9.67285 9.32102H10.1761C10.3297 9.32102 10.4349 9.29386 10.4917 9.23954C10.5486 9.18523 10.577 9.08745 10.577 8.94623V8.47366C10.577 8.327 10.5486 8.22922 10.4917 8.18034C10.4349 8.12602 10.3297 8.09886 10.1761 8.09886H9.67285C9.525 8.09886 9.42265 8.12602 9.36578 8.18034C9.30891 8.22922 9.28048 8.327 9.28048 8.47366V8.94623C9.28048 9.08745 9.30891 9.18523 9.36578 9.23954C9.42265 9.29386 9.525 9.32102 9.67285 9.32102ZM12.5133 9.32102H13.008C13.1616 9.32102 13.2668 9.29386 13.3236 9.23954C13.3805 9.18523 13.4089 9.08745 13.4089 8.94623V8.47366C13.4089 8.327 13.3805 8.22922 13.3236 8.18034C13.2668 8.12602 13.1616 8.09886 13.008 8.09886H12.5133C12.3598 8.09886 12.2546 8.12602 12.1977 8.18034C12.1408 8.22922 12.1124 8.327 12.1124 8.47366V8.94623C12.1124 9.08745 12.1408 9.18523 12.1977 9.23954C12.2546 9.29386 12.3598 9.32102 12.5133 9.32102ZM4.00903 11.9853H4.51229C4.66014 11.9853 4.7625 11.9609 4.81937 11.912C4.87623 11.8577 4.90467 11.7572 4.90467 11.6105V11.138C4.90467 10.9913 4.87623 10.8935 4.81937 10.8446C4.7625 10.7903 4.66014 10.7632 4.51229 10.7632H4.00903C3.85549 10.7632 3.75029 10.7903 3.69343 10.8446C3.63656 10.8935 3.60813 10.9913 3.60813 11.138V11.6105C3.60813 11.7572 3.63656 11.8577 3.69343 11.912C3.75029 11.9609 3.85549 11.9853 4.00903 11.9853ZM6.84094 11.9853H7.3442C7.49206 11.9853 7.59441 11.9609 7.65128 11.912C7.71383 11.8577 7.74511 11.7572 7.74511 11.6105V11.138C7.74511 10.9913 7.71383 10.8935 7.65128 10.8446C7.59441 10.7903 7.49206 10.7632 7.3442 10.7632H6.84094C6.69309 10.7632 6.58789 10.7903 6.52534 10.8446C6.46847 10.8935 6.44004 10.9913 6.44004 11.138V11.6105C6.44004 11.7572 6.46847 11.8577 6.52534 11.912C6.58789 11.9609 6.69309 11.9853 6.84094 11.9853ZM9.67285 11.9853H10.1761C10.3297 11.9853 10.4349 11.9609 10.4917 11.912C10.5486 11.8577 10.577 11.7572 10.577 11.6105V11.138C10.577 10.9913 10.5486 10.8935 10.4917 10.8446C10.4349 10.7903 10.3297 10.7632 10.1761 10.7632H9.67285C9.525 10.7632 9.42265 10.7903 9.36578 10.8446C9.30891 10.8935 9.28048 10.9913 9.28048 11.138V11.6105C9.28048 11.7572 9.30891 11.8577 9.36578 11.912C9.42265 11.9609 9.525 11.9853 9.67285 11.9853Z" fill="#48A9C8"/>
</svg>
