<svg width="15" height="15" viewBox="0 0 15 15" fill="none" xmlns="http://www.w3.org/2000/svg">
<path fill-rule="evenodd" clip-rule="evenodd" d="M5.5054 4.50541C5.5054 5.0577 5.05768 5.50541 4.5054 5.50541L1.29455 5.50541C0.742266 5.50541 0.294551 5.95313 0.294551 6.50541L0.294551 8.26609C0.294552 8.81837 0.742267 9.26609 1.29455 9.26609H4.5054C5.05768 9.26609 5.5054 9.7138 5.5054 10.2661V13.4769C5.5054 14.0292 5.95311 14.4769 6.5054 14.4769H8.26607C8.81836 14.4769 9.26607 14.0292 9.26607 13.4769L9.26607 10.2661C9.26607 9.7138 9.71379 9.26609 10.2661 9.26609L13.4769 9.26609C14.0292 9.26609 14.4769 8.81837 14.4769 8.26609L14.4769 6.50541C14.4769 5.95313 14.0292 5.50541 13.4769 5.50541L10.2661 5.50541C9.71379 5.50541 9.26607 5.0577 9.26607 4.50542V1.29456C9.26607 0.742274 8.81836 0.294559 8.26607 0.294559H6.5054C5.95311 0.294559 5.5054 0.742273 5.5054 1.29456L5.5054 4.50541Z" fill="white"/>
</svg>
