<svg width="25" height="24" viewBox="0 0 25 24" fill="none" xmlns="http://www.w3.org/2000/svg">
<path d="M3.27477 23.7539H14.0091C14.8841 23.7539 15.5404 23.5273 15.9779 23.0742C16.4154 22.6289 16.6341 21.9258 16.6341 20.9648V12.8906C16.6341 11.9453 16.4154 11.25 15.9779 10.8047C15.5404 10.3516 14.8841 10.125 14.0091 10.125H3.27477C2.39977 10.125 1.74352 10.3516 1.30602 10.8047C0.868517 11.25 0.649767 11.9453 0.649767 12.8906V20.9648C0.649767 21.9258 0.868517 22.6289 1.30602 23.0742C1.74352 23.5273 2.39977 23.7539 3.27477 23.7539ZM3.34508 21.9961C3.07164 21.9961 2.86852 21.9258 2.7357 21.7852C2.60289 21.6523 2.53649 21.4219 2.53649 21.0938V12.7734C2.53649 12.4453 2.60289 12.2148 2.7357 12.082C2.86852 11.9492 3.07164 11.8828 3.34508 11.8828H13.9505C14.224 11.8828 14.4232 11.9492 14.5482 12.082C14.681 12.2148 14.7474 12.4453 14.7474 12.7734V21.0938C14.7474 21.4219 14.681 21.6523 14.5482 21.7852C14.4232 21.9258 14.224 21.9961 13.9505 21.9961H3.34508ZM12.849 11.0508H14.7357V7.07812C14.7357 6.09375 14.9232 5.26953 15.2982 4.60547C15.6732 3.93359 16.1693 3.42969 16.7865 3.09375C17.4037 2.75 18.0795 2.57812 18.8138 2.57812C19.5404 2.57812 20.2123 2.75 20.8295 3.09375C21.4545 3.42969 21.9505 3.93359 22.3177 4.60547C22.6927 5.26953 22.8802 6.09375 22.8802 7.07812V9.67969C22.8802 10.0391 22.974 10.3086 23.1615 10.4883C23.349 10.6602 23.5755 10.7461 23.8412 10.7461C24.099 10.7461 24.3177 10.6641 24.4974 10.5C24.6771 10.3281 24.767 10.0547 24.767 9.67969V7.32422C24.767 6.22266 24.6029 5.26172 24.2748 4.44141C23.9466 3.62109 23.5013 2.94141 22.9388 2.40234C22.3763 1.85547 21.7396 1.44922 21.0287 1.18359C20.3177 0.910156 19.5795 0.773438 18.8138 0.773438C18.0482 0.773438 17.306 0.910156 16.5873 1.18359C15.8763 1.44922 15.2396 1.85547 14.6771 2.40234C14.1146 2.94141 13.6693 3.62109 13.3412 4.44141C13.013 5.26172 12.849 6.22266 12.849 7.32422V11.0508Z" fill="white" fill-opacity="0.56"/>
<path d="M15.9779 23.0742L15.2645 22.3734L15.2585 22.3796L15.9779 23.0742ZM15.9779 10.8047L15.2585 11.4993L15.2646 11.5055L15.9779 10.8047ZM1.30602 10.8047L2.01938 11.5055L2.02542 11.4993L1.30602 10.8047ZM1.30602 23.0742L2.02545 22.3796L2.01935 22.3734L1.30602 23.0742ZM2.7357 21.7852L3.46272 21.0985L3.45291 21.0881L3.44281 21.078L2.7357 21.7852ZM14.5482 12.082L13.82 12.7674L13.8304 12.7784L13.8411 12.7891L14.5482 12.082ZM14.5482 21.7852L13.8411 21.078L13.8203 21.0988L13.8008 21.1208L14.5482 21.7852ZM12.849 11.0508H11.849V12.0508H12.849V11.0508ZM14.7357 11.0508V12.0508H15.7357V11.0508H14.7357ZM15.2982 4.60547L16.169 5.09719L16.1714 5.09283L15.2982 4.60547ZM16.7865 3.09375L17.2646 3.97211L17.2731 3.96739L16.7865 3.09375ZM20.8295 3.09375L20.3429 3.96739L20.3494 3.97103L20.356 3.97457L20.8295 3.09375ZM22.3177 4.60547L21.4401 5.08508L21.447 5.09719L22.3177 4.60547ZM23.1615 10.4883L22.4696 11.2103L22.4776 11.2179L22.4858 11.2254L23.1615 10.4883ZM24.4974 10.5L25.1717 11.2385L25.1803 11.2307L25.1886 11.2226L24.4974 10.5ZM22.9388 2.40234L22.2417 3.11936L22.2469 3.12433L22.9388 2.40234ZM21.0287 1.18359L20.6697 2.11698L20.6787 2.12035L21.0287 1.18359ZM16.5873 1.18359L16.9373 2.12036L16.9428 2.11824L16.5873 1.18359ZM14.6771 2.40234L15.369 3.12435L15.3742 3.11934L14.6771 2.40234ZM3.27477 24.7539H14.0091V22.7539H3.27477V24.7539ZM14.0091 24.7539C15.0474 24.7539 16.0076 24.4832 16.6973 23.7688L15.2585 22.3796C15.0732 22.5715 14.7209 22.7539 14.0091 22.7539V24.7539ZM16.6912 23.775C17.3906 23.0632 17.6341 22.05 17.6341 20.9648H15.6341C15.6341 21.8015 15.4402 22.1946 15.2646 22.3734L16.6912 23.775ZM17.6341 20.9648V12.8906H15.6341V20.9648H17.6341ZM17.6341 12.8906C17.6341 11.8155 17.388 10.8131 16.6912 10.1039L15.2646 11.5055C15.4428 11.6869 15.6341 12.0751 15.6341 12.8906H17.6341ZM16.6973 10.1101C16.0076 9.39575 15.0474 9.125 14.0091 9.125V11.125C14.7209 11.125 15.0732 11.3074 15.2585 11.4993L16.6973 10.1101ZM14.0091 9.125H3.27477V11.125H14.0091V9.125ZM3.27477 9.125C2.23653 9.125 1.27632 9.39575 0.586616 10.1101L2.02542 11.4993C2.21071 11.3074 2.56301 11.125 3.27477 11.125V9.125ZM0.59268 10.1039C-0.10412 10.8131 -0.350233 11.8155 -0.350233 12.8906H1.64977C1.64977 12.0751 1.84115 11.6869 2.01935 11.5055L0.59268 10.1039ZM-0.350233 12.8906V20.9648H1.64977V12.8906H-0.350233ZM-0.350233 20.9648C-0.350233 22.05 -0.106656 23.0632 0.59268 23.775L2.01935 22.3734C1.84369 22.1946 1.64977 21.8015 1.64977 20.9648H-0.350233ZM0.586616 23.7688C1.27632 24.4832 2.23653 24.7539 3.27477 24.7539V22.7539C2.56301 22.7539 2.21071 22.5715 2.02542 22.3796L0.586616 23.7688ZM3.34508 20.9961C3.29084 20.9961 3.28693 20.9887 3.31477 20.9984C3.34817 21.0099 3.40671 21.0392 3.46272 21.0985L2.00869 22.4718C2.39757 22.8835 2.91263 22.9961 3.34508 22.9961V20.9961ZM3.44281 21.078C3.52471 21.16 3.54624 21.2325 3.5472 21.2358C3.54787 21.2382 3.54492 21.2285 3.54194 21.2035C3.53899 21.1786 3.53649 21.1426 3.53649 21.0938H1.53649C1.53649 21.5037 1.60951 22.0732 2.0286 22.4923L3.44281 21.078ZM3.53649 21.0938V12.7734H1.53649V21.0938H3.53649ZM3.53649 12.7734C3.53649 12.7245 3.53899 12.6885 3.54194 12.6637C3.54492 12.6387 3.54787 12.629 3.5472 12.6314C3.54624 12.6347 3.52471 12.7072 3.44281 12.7891L2.0286 11.3749C1.60951 11.794 1.53649 12.3635 1.53649 12.7734H3.53649ZM3.44281 12.7891C3.3836 12.8483 3.32552 12.8742 3.2984 12.8831C3.27611 12.8904 3.28592 12.8828 3.34508 12.8828V10.8828C2.9273 10.8828 2.41992 10.9836 2.0286 11.3749L3.44281 12.7891ZM3.34508 12.8828H13.9505V10.8828H3.34508V12.8828ZM13.9505 12.8828C14.0104 12.8828 14.0167 12.8906 13.9888 12.8813C13.9554 12.8702 13.8871 12.8386 13.82 12.7674L15.2764 11.3967C14.8854 10.9812 14.3624 10.8828 13.9505 10.8828V12.8828ZM13.8411 12.7891C13.7592 12.7072 13.7377 12.6347 13.7367 12.6314C13.736 12.629 13.739 12.6387 13.742 12.6637C13.7449 12.6885 13.7474 12.7245 13.7474 12.7734H15.7474C15.7474 12.3635 15.6744 11.794 15.2553 11.3749L13.8411 12.7891ZM13.7474 12.7734V21.0938H15.7474V12.7734H13.7474ZM13.7474 21.0938C13.7474 21.1426 13.7449 21.1786 13.742 21.2035C13.739 21.2285 13.736 21.2382 13.7367 21.2358C13.7377 21.2325 13.7592 21.16 13.8411 21.078L15.2553 22.4923C15.6744 22.0732 15.7474 21.5037 15.7474 21.0938H13.7474ZM13.8008 21.1208C13.864 21.0497 13.9322 21.0145 13.9722 21.0004C14.0057 20.9885 14.0055 20.9961 13.9505 20.9961V22.9961C14.3776 22.9961 14.908 22.8856 15.2956 22.4495L13.8008 21.1208ZM13.9505 20.9961H3.34508V22.9961H13.9505V20.9961ZM12.849 12.0508H14.7357V10.0508H12.849V12.0508ZM15.7357 11.0508V7.07812H13.7357V11.0508H15.7357ZM15.7357 7.07812C15.7357 6.21717 15.8999 5.57373 16.169 5.09719L14.4275 4.11375C13.9466 4.96533 13.7357 5.97033 13.7357 7.07812H15.7357ZM16.1714 5.09283C16.4634 4.56974 16.829 4.20914 17.2646 3.97207L16.3084 2.21543C15.5096 2.65023 14.883 3.29745 14.425 4.1181L16.1714 5.09283ZM17.2731 3.96739C17.7355 3.70984 18.2428 3.57812 18.8138 3.57812V1.57812C17.9161 1.57812 17.0719 1.79016 16.2999 2.22011L17.2731 3.96739ZM18.8138 3.57812C19.3751 3.57812 19.8788 3.70893 20.3429 3.96739L21.316 2.22011C20.5457 1.79107 19.7056 1.57812 18.8138 1.57812V3.57812ZM20.356 3.97457C20.7967 4.21145 21.1583 4.5692 21.4402 5.08504L23.1952 4.1259C22.7428 3.29799 22.1122 2.64793 21.3029 2.21293L20.356 3.97457ZM21.447 5.09719C21.7161 5.57373 21.8802 6.21717 21.8802 7.07812H23.8802C23.8802 5.97033 23.6694 4.96533 23.1885 4.11375L21.447 5.09719ZM21.8802 7.07812V9.67969H23.8802V7.07812H21.8802ZM21.8802 9.67969C21.8802 10.2043 22.0193 10.7787 22.4696 11.2103L23.8534 9.76629C23.8673 9.77964 23.8783 9.79364 23.886 9.80601C23.8936 9.81805 23.8957 9.82482 23.895 9.82285C23.893 9.81705 23.8802 9.77526 23.8802 9.67969H21.8802ZM22.4858 11.2254C22.8665 11.5744 23.3375 11.7461 23.8412 11.7461V9.74609C23.8288 9.74609 23.8226 9.74511 23.8213 9.74488C23.8202 9.74469 23.8224 9.745 23.8267 9.74664C23.8311 9.7483 23.8351 9.75036 23.838 9.75218C23.8408 9.75394 23.8405 9.75417 23.8372 9.75113L22.4858 11.2254ZM23.8412 11.7461C24.3322 11.7461 24.7961 11.5814 25.1717 11.2385L23.8232 9.76151C23.8224 9.76218 23.8246 9.76008 23.8298 9.75687C23.8351 9.75361 23.8413 9.75057 23.8475 9.74824C23.8504 9.74714 23.8529 9.74637 23.8548 9.74587C23.8566 9.74537 23.8576 9.7452 23.8576 9.74521C23.8575 9.74521 23.8563 9.74543 23.8536 9.74565C23.851 9.74587 23.8469 9.74609 23.8412 9.74609V11.7461ZM25.1886 11.2226C25.6468 10.7844 25.767 10.1899 25.767 9.67969H23.767C23.767 9.79144 23.7531 9.84311 23.7495 9.85386C23.7482 9.8578 23.7505 9.84974 23.7598 9.83425C23.7695 9.81822 23.7847 9.79793 23.8062 9.77736L25.1886 11.2226ZM25.767 9.67969V7.32422H23.767V9.67969H25.767ZM25.767 7.32422C25.767 6.12573 25.5887 5.03365 25.2032 4.07002L23.3463 4.8128C23.6171 5.48979 23.767 6.31958 23.767 7.32422H25.767ZM25.2032 4.07002C24.8293 3.13506 24.3091 2.3305 23.6307 1.68036L22.2469 3.12433C22.6935 3.55231 23.064 4.10713 23.3463 4.8128L25.2032 4.07002ZM23.6359 1.68535C22.9776 1.04532 22.2237 0.562555 21.3787 0.246842L20.6787 2.12035C21.2556 2.33588 21.7751 2.66562 22.2418 3.11934L23.6359 1.68535ZM21.3877 0.250248C20.5616 -0.0674806 19.7015 -0.226562 18.8138 -0.226562V1.77344C19.4574 1.77344 20.0739 1.88779 20.6697 2.11694L21.3877 0.250248ZM18.8138 -0.226562C17.9261 -0.226562 17.0635 -0.0675027 16.2317 0.248945L16.9428 2.11824C17.5485 1.88782 18.1703 1.77344 18.8138 1.77344V-0.226562ZM16.2373 0.246842C15.3923 0.562555 14.6383 1.04532 13.98 1.68535L15.3742 3.11934C15.8409 2.66562 16.3604 2.33588 16.9373 2.12035L16.2373 0.246842ZM13.9852 1.68036C13.3068 2.3305 12.7867 3.13506 12.4127 4.07002L14.2696 4.8128C14.5519 4.10713 14.9224 3.55231 15.369 3.12433L13.9852 1.68036ZM12.4127 4.07002C12.0272 5.03365 11.849 6.12573 11.849 7.32422H13.849C13.849 6.31958 13.9989 5.48979 14.2696 4.8128L12.4127 4.07002ZM11.849 7.32422V11.0508H13.849V7.32422H11.849Z" fill="white" fill-opacity="0.56"/>
</svg>
