<svg width="18" height="19" viewBox="0 0 18 19" fill="none" xmlns="http://www.w3.org/2000/svg">
<path d="M1.82888 19H16.1711C16.7415 19 17.1872 18.8732 17.508 18.6196C17.836 18.373 18 18.0313 18 17.5945C18 16.9182 17.7897 16.2032 17.369 15.4494C16.9554 14.6956 16.3565 13.9911 15.5722 13.3359C14.795 12.6737 13.8503 12.1383 12.738 11.7297C11.6328 11.3141 10.385 11.1062 8.99465 11.1062C7.61141 11.1062 6.36364 11.3141 5.25134 11.7297C4.14617 12.1383 3.20143 12.6737 2.41711 13.3359C1.6328 13.9911 1.03387 14.6956 0.620321 15.4494C0.206774 16.2032 0 16.9182 0 17.5945C0 18.0313 0.160428 18.373 0.481283 18.6196C0.809269 18.8732 1.25847 19 1.82888 19ZM9.00535 9.21468C9.76827 9.21468 10.4742 9.01038 11.123 8.60178C11.7718 8.18613 12.2923 7.62607 12.6845 6.92158C13.0838 6.21709 13.2834 5.42455 13.2834 4.54394C13.2834 3.67742 13.0838 2.90248 12.6845 2.21913C12.2923 1.52874 11.7718 0.986281 11.123 0.591769C10.4742 0.197256 9.76827 0 9.00535 0C8.24242 0 7.53654 0.200779 6.8877 0.602336C6.23886 1.00389 5.71479 1.54987 5.31551 2.24027C4.92335 2.93066 4.72727 3.7056 4.72727 4.56507C4.72727 5.43864 4.92335 6.22766 5.31551 6.93215C5.71479 7.62959 6.23886 8.18613 6.8877 8.60178C7.53654 9.01038 8.24242 9.21468 9.00535 9.21468Z" fill="white"/>
</svg>
