<svg width="10" height="19" viewBox="0 0 10 19" fill="none" xmlns="http://www.w3.org/2000/svg">
<path d="M0.253906 17.9336C0.253906 18.2227 0.347656 18.457 0.535156 18.6367C0.722656 18.8086 0.972656 18.8945 1.28516 18.8945H8.70312C9.01562 18.8945 9.26562 18.8086 9.45312 18.6367C9.64062 18.457 9.73438 18.2227 9.73438 17.9336C9.73438 17.6523 9.64062 17.4258 9.45312 17.2539C9.26562 17.0742 9.01562 16.9844 8.70312 16.9844H6.34766V8.04297C6.34766 7.72266 6.25391 7.46875 6.06641 7.28125C5.87891 7.08594 5.63281 6.98828 5.32812 6.98828H1.61328C1.30859 6.98828 1.05859 7.07422 0.863281 7.24609C0.675781 7.41797 0.582031 7.64453 0.582031 7.92578C0.582031 8.21484 0.675781 8.44922 0.863281 8.62891C1.05859 8.80859 1.30859 8.89844 1.61328 8.89844H4.17969V16.9844H1.28516C0.972656 16.9844 0.722656 17.0742 0.535156 17.2539C0.347656 17.4258 0.253906 17.6523 0.253906 17.9336ZM3.16016 2.44141C3.16016 2.91016 3.32422 3.30859 3.65234 3.63672C3.98047 3.96484 4.37891 4.12891 4.84766 4.12891C5.31641 4.12891 5.71094 3.96484 6.03125 3.63672C6.35938 3.30859 6.52344 2.91016 6.52344 2.44141C6.52344 1.96484 6.35938 1.5625 6.03125 1.23438C5.71094 0.90625 5.31641 0.742188 4.84766 0.742188C4.37891 0.742188 3.98047 0.90625 3.65234 1.23438C3.32422 1.5625 3.16016 1.96484 3.16016 2.44141Z" fill="white"/>
<path d="M0.535156 18.6367L-0.156749 19.3587L-0.148743 19.3664L-0.140568 19.3739L0.535156 18.6367ZM9.45312 18.6367L10.1288 19.3739L10.137 19.3664L10.145 19.3587L9.45312 18.6367ZM9.45312 17.2539L8.76122 17.9759L8.76923 17.9836L8.7774 17.9911L9.45312 17.2539ZM6.34766 16.9844H5.34766V17.9844H6.34766V16.9844ZM6.06641 7.28125L5.34502 7.97378L5.35209 7.98114L5.3593 7.98836L6.06641 7.28125ZM0.863281 7.24609L0.202653 6.49538L0.195036 6.50208L0.187557 6.50894L0.863281 7.24609ZM0.863281 8.62891L0.171376 9.35089L0.178729 9.35794L0.186225 9.36484L0.863281 8.62891ZM4.17969 8.89844H5.17969V7.89844H4.17969V8.89844ZM4.17969 16.9844V17.9844H5.17969V16.9844H4.17969ZM0.535156 17.2539L1.21088 17.9911L1.21906 17.9836L1.22706 17.9759L0.535156 17.2539ZM6.03125 3.63672L5.32409 2.92956L5.31568 2.93818L6.03125 3.63672ZM6.03125 1.23438L5.31562 1.93296L5.32414 1.94148L6.03125 1.23438ZM-0.746094 17.9336C-0.746094 18.4613 -0.564313 18.9681 -0.156749 19.3587L1.22706 17.9147C1.22887 17.9165 1.23366 17.9215 1.23933 17.9298C1.24504 17.9382 1.24958 17.947 1.2527 17.9548C1.25575 17.9624 1.25622 17.966 1.25582 17.9638C1.25538 17.9614 1.25391 17.9518 1.25391 17.9336H-0.746094ZM-0.140568 19.3739C0.27125 19.7514 0.782424 19.8945 1.28516 19.8945V17.8945C1.21989 17.8945 1.19167 17.8855 1.18836 17.8844C1.1868 17.8839 1.18966 17.8847 1.19519 17.888C1.20082 17.8913 1.20634 17.8954 1.21088 17.8996L-0.140568 19.3739ZM1.28516 19.8945H8.70312V17.8945H1.28516V19.8945ZM8.70312 19.8945C9.20586 19.8945 9.71703 19.7514 10.1288 19.3739L8.7774 17.8996C8.78194 17.8954 8.78747 17.8913 8.79309 17.888C8.79862 17.8847 8.80149 17.8839 8.79992 17.8844C8.79661 17.8855 8.76839 17.8945 8.70312 17.8945V19.8945ZM10.145 19.3587C10.5526 18.9681 10.7344 18.4613 10.7344 17.9336H8.73438C8.73438 17.9518 8.7329 17.9614 8.73246 17.9638C8.73206 17.966 8.73254 17.9624 8.73559 17.9548C8.7387 17.947 8.74324 17.9382 8.74895 17.9298C8.75462 17.9215 8.75941 17.9165 8.76122 17.9147L10.145 19.3587ZM10.7344 17.9336C10.7344 17.405 10.5461 16.8992 10.1288 16.5168L8.7774 17.9911C8.77386 17.9878 8.76699 17.9808 8.7592 17.9697C8.75134 17.9586 8.74481 17.9466 8.74005 17.9351C8.72992 17.9106 8.73438 17.905 8.73438 17.9336H10.7344ZM10.145 16.5319C9.7347 16.1387 9.21778 15.9844 8.70312 15.9844V17.9844C8.73346 17.9844 8.75465 17.9866 8.76806 17.9887C8.77472 17.9898 8.77944 17.9908 8.78243 17.9916C8.78541 17.9923 8.78679 17.9928 8.7868 17.9928C8.7868 17.9928 8.78569 17.9924 8.7837 17.9915C8.7817 17.9905 8.77915 17.9892 8.77626 17.9874C8.77008 17.9836 8.76485 17.9794 8.76122 17.9759L10.145 16.5319ZM8.70312 15.9844H6.34766V17.9844H8.70312V15.9844ZM7.34766 16.9844V8.04297H5.34766V16.9844H7.34766ZM7.34766 8.04297C7.34766 7.51635 7.18646 6.98709 6.77351 6.57414L5.3593 7.98836C5.3554 7.98446 5.35056 7.97869 5.3461 7.97168C5.34167 7.96473 5.33965 7.95977 5.33925 7.95868C5.33843 7.95646 5.34766 7.97983 5.34766 8.04297H7.34766ZM6.78779 6.58872C6.38724 6.17147 5.86761 5.98828 5.32812 5.98828V7.98828C5.35091 7.98828 5.36471 7.99011 5.37107 7.99123C5.37719 7.99232 5.37699 7.99285 5.37236 7.99101C5.36757 7.98911 5.36129 7.98596 5.35494 7.98167C5.35196 7.97966 5.34955 7.97778 5.34774 7.97625C5.34685 7.9755 5.34618 7.97489 5.34571 7.97446C5.34525 7.97402 5.34502 7.97378 5.34502 7.97378L6.78779 6.58872ZM5.32812 5.98828H1.61328V7.98828H5.32812V5.98828ZM1.61328 5.98828C1.10943 5.98828 0.611087 6.13596 0.202653 6.49538L1.52391 7.99681C1.52399 7.99673 1.52286 7.99768 1.52106 7.99873C1.51928 7.99975 1.51927 7.99948 1.52235 7.99842C1.52814 7.99643 1.55498 7.98828 1.61328 7.98828V5.98828ZM0.187557 6.50894C-0.229689 6.89141 -0.417969 7.3972 -0.417969 7.92578H1.58203C1.58203 7.89722 1.58648 7.90281 1.57636 7.92727C1.57159 7.9388 1.56506 7.9508 1.5572 7.96194C1.54941 7.97297 1.54255 7.98 1.53901 7.98325L0.187557 6.50894ZM-0.417969 7.92578C-0.417969 8.45346 -0.236188 8.96031 0.171376 9.35089L1.55519 7.90692C1.557 7.90865 1.56178 7.91366 1.56745 7.922C1.57317 7.93042 1.5777 7.93918 1.58082 7.94697C1.58387 7.95459 1.58434 7.95824 1.58395 7.95603C1.58351 7.95357 1.58203 7.944 1.58203 7.92578H-0.417969ZM0.186225 9.36484C0.593448 9.73948 1.09756 9.89844 1.61328 9.89844V7.89844C1.55953 7.89844 1.5373 7.89064 1.53546 7.88998C1.53423 7.88954 1.53544 7.88989 1.53782 7.89133C1.5402 7.89277 1.54116 7.89373 1.54034 7.89297L0.186225 9.36484ZM1.61328 9.89844H4.17969V7.89844H1.61328V9.89844ZM3.17969 8.89844V16.9844H5.17969V8.89844H3.17969ZM4.17969 15.9844H1.28516V17.9844H4.17969V15.9844ZM1.28516 15.9844C0.7705 15.9844 0.253584 16.1387 -0.156749 16.5319L1.22706 17.9759C1.22343 17.9794 1.2182 17.9836 1.21202 17.9874C1.20913 17.9892 1.20658 17.9905 1.20458 17.9915C1.20259 17.9924 1.20148 17.9928 1.20148 17.9928C1.2015 17.9928 1.20287 17.9923 1.20585 17.9916C1.20884 17.9908 1.21356 17.9898 1.22022 17.9887C1.23363 17.9866 1.25482 17.9844 1.28516 17.9844V15.9844ZM-0.140568 16.5168C-0.557814 16.8992 -0.746094 17.405 -0.746094 17.9336H1.25391C1.25391 17.905 1.25836 17.9106 1.24824 17.9351C1.24347 17.9466 1.23694 17.9586 1.22908 17.9697C1.22129 17.9808 1.21442 17.9878 1.21088 17.9911L-0.140568 16.5168ZM2.16016 2.44141C2.16016 3.17235 2.42745 3.82603 2.94524 4.34383L4.35945 2.92961C4.22099 2.79115 4.16016 2.64797 4.16016 2.44141H2.16016ZM2.94524 4.34383C3.46303 4.86162 4.11672 5.12891 4.84766 5.12891V3.12891C4.6411 3.12891 4.49791 3.06807 4.35945 2.92961L2.94524 4.34383ZM4.84766 5.12891C5.57906 5.12891 6.23367 4.86092 6.74682 4.33526L5.31568 2.93818C5.1882 3.06876 5.05376 3.12891 4.84766 3.12891V5.12891ZM6.73836 4.34383C7.25615 3.82603 7.52344 3.17235 7.52344 2.44141H5.52344C5.52344 2.64797 5.4626 2.79115 5.32414 2.92961L6.73836 4.34383ZM7.52344 2.44141C7.52344 1.70764 7.25961 1.04852 6.73836 0.527268L5.32414 1.94148C5.45914 2.07648 5.52344 2.22205 5.52344 2.44141H7.52344ZM6.74682 0.535838C6.23367 0.01017 5.57906 -0.257812 4.84766 -0.257812V1.74219C5.05376 1.74219 5.1882 1.80233 5.31568 1.93291L6.74682 0.535838ZM4.84766 -0.257812C4.11672 -0.257812 3.46303 0.00947714 2.94524 0.527268L4.35945 1.94148C4.49791 1.80302 4.6411 1.74219 4.84766 1.74219V-0.257812ZM2.94524 0.527268C2.42399 1.04852 2.16016 1.70764 2.16016 2.44141H4.16016C4.16016 2.22205 4.22445 2.07648 4.35945 1.94148L2.94524 0.527268Z" fill="white"/>
</svg>
