<svg width="24" height="24" viewBox="0 0 24 24" fill="none" xmlns="http://www.w3.org/2000/svg">
<path d="M4.29688 23.3086H18.0547C19.1094 23.3086 19.9258 23.0039 20.5039 22.3945C21.0898 21.793 21.3828 20.8867 21.3828 19.6758V7.14844L19.4961 9.03516V19.582C19.4961 20.1914 19.3516 20.6523 19.0625 20.9648C18.7734 21.2695 18.4297 21.4219 18.0312 21.4219H4.33203C3.74609 21.4219 3.29297 21.2695 2.97266 20.9648C2.66016 20.6523 2.50391 20.1914 2.50391 19.582V6.28125C2.50391 5.67188 2.66016 5.21094 2.97266 4.89844C3.29297 4.58594 3.74609 4.42969 4.33203 4.42969H15.0078L16.8945 2.54297H4.29688C3.07812 2.54297 2.16016 2.84766 1.54297 3.45703C0.925781 4.05859 0.617188 4.96484 0.617188 6.17578V19.6758C0.617188 20.8867 0.925781 21.793 1.54297 22.3945C2.16016 23.0039 3.07812 23.3086 4.29688 23.3086ZM8.5625 15.7148L10.8477 14.7188L21.793 3.78516L20.1875 2.20312L9.25391 13.1367L8.19922 15.3398C8.15234 15.4414 8.17188 15.543 8.25781 15.6445C8.35156 15.7383 8.45312 15.7617 8.5625 15.7148ZM22.6602 2.92969L23.5039 2.0625C23.6992 1.85156 23.7969 1.62109 23.7969 1.37109C23.8047 1.11328 23.707 0.886719 23.5039 0.691406L23.2344 0.410156C23.0547 0.230469 22.8359 0.148438 22.5781 0.164062C22.3281 0.179687 22.1055 0.28125 21.9102 0.46875L21.0547 1.3125L22.6602 2.92969Z" fill="white" fill-opacity="0.56"/>
<path d="M20.5039 22.3945L19.7875 21.6967L19.7784 21.7063L20.5039 22.3945ZM21.3828 7.14844H22.3828V4.73422L20.6757 6.44133L21.3828 7.14844ZM19.4961 9.03516L18.789 8.32805L18.4961 8.62094V9.03516H19.4961ZM19.0625 20.9648L19.788 21.6532L19.7966 21.6439L19.0625 20.9648ZM2.97266 20.9648L2.26555 21.672L2.27439 21.6808L2.28344 21.6894L2.97266 20.9648ZM2.97266 4.89844L2.27428 4.1826L2.26555 4.19133L2.97266 4.89844ZM15.0078 4.42969V5.42969H15.422L15.7149 5.13679L15.0078 4.42969ZM16.8945 2.54297L17.6016 3.25008L19.3087 1.54297H16.8945V2.54297ZM1.54297 3.45703L2.24097 4.17316L2.24556 4.16863L1.54297 3.45703ZM1.54297 22.3945L2.24557 21.6829L2.24095 21.6784L1.54297 22.3945ZM8.5625 15.7148L8.95643 16.634L8.96209 16.6315L8.5625 15.7148ZM10.8477 14.7188L11.2472 15.6354L11.4206 15.5599L11.5544 15.4262L10.8477 14.7188ZM21.793 3.78516L22.4997 4.49264L23.2128 3.78032L22.4949 3.07287L21.793 3.78516ZM20.1875 2.20312L20.8894 1.49084L20.1823 0.794092L19.4804 1.49602L20.1875 2.20312ZM9.25391 13.1367L8.5468 12.4296L8.42581 12.5506L8.35193 12.7049L9.25391 13.1367ZM8.19922 15.3398L7.29716 14.908L7.29126 14.9208L8.19922 15.3398ZM8.25781 15.6445L7.49443 16.2905L7.52129 16.3222L7.55071 16.3516L8.25781 15.6445ZM22.6602 2.92969L21.9505 3.63422L22.6673 4.3563L23.3769 3.62704L22.6602 2.92969ZM23.5039 2.0625L24.2206 2.75985L24.2293 2.75099L24.2377 2.74191L23.5039 2.0625ZM23.7969 1.37109L22.7973 1.3408L22.7969 1.35595V1.37109H23.7969ZM23.5039 0.691406L22.7819 1.38331L22.7961 1.39807L22.8108 1.41224L23.5039 0.691406ZM23.2344 0.410156L23.9564 -0.281749L23.949 -0.289429L23.9415 -0.296951L23.2344 0.410156ZM22.5781 0.164062L22.5176 -0.834108L22.5157 -0.83399L22.5781 0.164062ZM21.9102 0.46875L21.2176 -0.252703L21.2079 -0.243216L21.9102 0.46875ZM21.0547 1.3125L20.3525 0.600533L19.6382 1.30504L20.345 2.01703L21.0547 1.3125ZM4.29688 24.3086H18.0547V22.3086H4.29688V24.3086ZM18.0547 24.3086C19.3091 24.3086 20.4166 23.9395 21.2294 23.0828L19.7784 21.7063C19.435 22.0683 18.9096 22.3086 18.0547 22.3086V24.3086ZM21.2203 23.0923C22.0551 22.2352 22.3828 21.0322 22.3828 19.6758H20.3828C20.3828 20.7412 20.1246 21.3508 19.7876 21.6968L21.2203 23.0923ZM22.3828 19.6758V7.14844H20.3828V19.6758H22.3828ZM20.6757 6.44133L18.789 8.32805L20.2032 9.74226L22.0899 7.85554L20.6757 6.44133ZM18.4961 9.03516V19.582H20.4961V9.03516H18.4961ZM18.4961 19.582C18.4961 20.0477 18.3851 20.2245 18.3284 20.2858L19.7966 21.6439C20.318 21.0802 20.4961 20.3351 20.4961 19.582H18.4961ZM18.337 20.2766C18.2253 20.3943 18.1391 20.4219 18.0312 20.4219V22.4219C18.7202 22.4219 19.3215 22.1448 19.788 21.6531L18.337 20.2766ZM18.0312 20.4219H4.33203V22.4219H18.0312V20.4219ZM4.33203 20.4219C3.91688 20.4219 3.74225 20.3167 3.66187 20.2403L2.28344 21.6894C2.84368 22.2223 3.57531 22.4219 4.33203 22.4219V20.4219ZM3.67976 20.2577C3.61663 20.1946 3.50391 20.0287 3.50391 19.582H1.50391C1.50391 20.3541 1.70368 21.1101 2.26555 21.672L3.67976 20.2577ZM3.50391 19.582V6.28125H1.50391V19.582H3.50391ZM3.50391 6.28125C3.50391 5.83454 3.61663 5.66868 3.67976 5.60554L2.26555 4.19133C1.70368 4.7532 1.50391 5.50921 1.50391 6.28125H3.50391ZM3.67098 5.61422C3.75218 5.535 3.92342 5.42969 4.33203 5.42969V3.42969C3.56877 3.42969 2.83376 3.63687 2.27433 4.18266L3.67098 5.61422ZM4.33203 5.42969H15.0078V3.42969H4.33203V5.42969ZM15.7149 5.13679L17.6016 3.25008L16.1874 1.83586L14.3007 3.72258L15.7149 5.13679ZM16.8945 1.54297H4.29688V3.54297H16.8945V1.54297ZM4.29688 1.54297C2.92291 1.54297 1.70953 1.88729 0.84038 2.74544L2.24556 4.16863C2.61079 3.80802 3.23334 3.54297 4.29688 3.54297V1.54297ZM0.844985 2.74092C-0.0325532 3.59624 -0.382812 4.80632 -0.382812 6.17578H1.61719C1.61719 5.12336 1.88412 4.52095 2.24095 4.17314L0.844985 2.74092ZM-0.382812 6.17578V19.6758H1.61719V6.17578H-0.382812ZM-0.382812 19.6758C-0.382812 21.0452 -0.0325532 22.2553 0.844985 23.1106L2.24095 21.6784C1.88412 21.3306 1.61719 20.7282 1.61719 19.6758H-0.382812ZM0.84038 23.1061C1.70953 23.9643 2.92291 24.3086 4.29688 24.3086V22.3086C3.23334 22.3086 2.61079 22.0435 2.24556 21.6829L0.84038 23.1061ZM8.96209 16.6315L11.2472 15.6354L10.4481 13.8021L8.16291 14.7981L8.96209 16.6315ZM11.5544 15.4262L22.4997 4.49264L21.0862 3.07767L10.1409 14.0113L11.5544 15.4262ZM22.4949 3.07287L20.8894 1.49084L19.4856 2.91541L21.0911 4.49744L22.4949 3.07287ZM19.4804 1.49602L8.5468 12.4296L9.96101 13.8438L20.8946 2.91023L19.4804 1.49602ZM8.35193 12.7049L7.29725 14.908L9.10119 15.7716L10.1559 13.5685L8.35193 12.7049ZM7.29126 14.9208C7.18771 15.1451 7.14417 15.4079 7.1967 15.681C7.24689 15.942 7.37157 16.1453 7.49443 16.2905L9.0212 14.9986C9.05812 15.0422 9.13006 15.1439 9.16072 15.3033C9.19372 15.4749 9.16385 15.6361 9.10718 15.7589L7.29126 14.9208ZM7.55071 16.3516C7.69444 16.4954 7.90243 16.6429 8.17944 16.7068C8.46567 16.7729 8.73535 16.7287 8.95642 16.634L8.16858 14.7957C8.28027 14.7478 8.44448 14.7154 8.62916 14.758C8.8046 14.7985 8.91494 14.8874 8.96492 14.9374L7.55071 16.3516ZM23.3769 3.62704L24.2206 2.75985L22.7872 1.36514L21.9434 2.23233L23.3769 3.62704ZM24.2377 2.74191C24.5766 2.37582 24.7969 1.91076 24.7969 1.37109H22.7969C22.7969 1.36803 22.7972 1.36254 22.7986 1.35575C22.8 1.34897 22.8018 1.3439 22.8029 1.3413C22.8053 1.33548 22.8007 1.35009 22.7701 1.38309L24.2377 2.74191ZM24.7964 1.40138C24.8136 0.833181 24.5827 0.341455 24.197 -0.0294268L22.8108 1.41224C22.83 1.43067 22.822 1.42877 22.8112 1.40364C22.8061 1.39188 22.8021 1.37889 22.7997 1.36597C22.7974 1.35319 22.7972 1.34427 22.7973 1.3408L24.7964 1.40138ZM24.2259 -0.000499129L23.9564 -0.281749L22.5124 1.10206L22.7819 1.38331L24.2259 -0.000499129ZM23.9415 -0.296951C23.5556 -0.682824 23.0558 -0.866723 22.5176 -0.834106L22.6386 1.16223C22.6424 1.162 22.6197 1.16341 22.5844 1.1502C22.5682 1.14412 22.5542 1.13672 22.5433 1.12951C22.538 1.12606 22.534 1.12303 22.5313 1.12078C22.5285 1.11854 22.5272 1.11724 22.5273 1.11726L23.9415 -0.296951ZM22.5157 -0.83399C22.0098 -0.802367 21.5688 -0.589733 21.2176 -0.252637L22.6027 1.19014C22.6155 1.17781 22.625 1.1706 22.6306 1.16671C22.6334 1.16474 22.6355 1.16351 22.6367 1.16279C22.638 1.16209 22.6386 1.1618 22.6386 1.16177C22.6387 1.16175 22.6384 1.16188 22.6379 1.16207C22.6373 1.16226 22.6368 1.16241 22.6364 1.16251C22.6353 1.16277 22.6364 1.16237 22.6405 1.16212L22.5157 -0.83399ZM21.2079 -0.243216L20.3525 0.600533L21.7569 2.02447L22.6124 1.18072L21.2079 -0.243216ZM20.345 2.01703L21.9505 3.63422L23.3698 2.22516L21.7644 0.607969L20.345 2.01703Z" fill="white" fill-opacity="0.56"/>
</svg>
