<svg width="13" height="22" viewBox="0 0 13 22" fill="none" xmlns="http://www.w3.org/2000/svg">
<path d="M11.2694 11.4391C10.4649 10.6763 9.2433 10.1209 7.66839 9.73359V5.28931C7.76968 5.3186 7.86717 5.35211 7.96097 5.38969L7.96096 5.38972L7.96601 5.39168C8.3657 5.54682 8.69377 5.7758 8.95883 6.07885L8.95878 6.0789L8.96449 6.08521C9.23486 6.3839 9.44639 6.76265 9.59108 7.23436L9.5918 7.23666C9.68518 7.53594 9.84002 7.80739 10.0841 8.00296C10.333 8.20242 10.631 8.28777 10.9428 8.28777C11.3044 8.28777 11.6507 8.17526 11.9067 7.89392L11.9068 7.89398L11.913 7.88693C12.1478 7.61894 12.2466 7.28719 12.2466 6.93708C12.2466 6.84579 12.2397 6.75485 12.2259 6.66447C12.2165 6.56049 12.1967 6.45727 12.1683 6.35533C11.9719 5.59501 11.5982 4.92493 11.0526 4.3515C10.5147 3.77994 9.85187 3.34211 9.07425 3.03424C8.62865 2.85649 8.15965 2.73097 7.66839 2.65631V1.6646C7.66839 1.35058 7.55295 1.06778 7.33221 0.8439C7.10789 0.616386 6.8214 0.5 6.50437 0.5C6.18835 0.5 5.90623 0.619794 5.68526 0.8439C5.46452 1.06778 5.34909 1.35058 5.34909 1.6646V2.65861C4.736 2.75011 4.16255 2.91607 3.63125 3.15955C2.7734 3.55268 2.0831 4.10593 1.57825 4.82411L1.57824 4.8241L1.57649 4.82662C1.0706 5.55574 0.823272 6.39858 0.823272 7.33584C0.823272 8.50564 1.21992 9.49904 2.0248 10.2746L2.02639 10.2761C2.78886 11.0043 3.91445 11.536 5.34909 11.9054V16.6689C5.18881 16.6318 5.0374 16.5868 4.8946 16.5343C4.43218 16.3642 4.06181 16.1199 3.77127 15.8061C3.49009 15.4962 3.28436 15.1063 3.16239 14.6218L3.15806 14.6046L3.15253 14.5878C3.05615 14.2945 2.90163 14.0302 2.66516 13.8366C2.41847 13.6284 2.12016 13.535 1.80381 13.535C1.43624 13.535 1.08804 13.6545 0.833668 13.9447C0.596977 14.2148 0.5 14.5507 0.5 14.9034C0.5 15.0879 0.52747 15.2768 0.576078 15.4677C0.778669 16.2944 1.18303 17.0084 1.78565 17.5997C2.37656 18.1795 3.08862 18.6177 3.91322 18.9178L3.91437 18.9182C4.37653 19.0851 4.85498 19.2048 5.34909 19.278V20.3265C5.34909 20.6417 5.46126 20.9289 5.68526 21.1561C5.90623 21.3802 6.18835 21.5 6.50437 21.5C6.8214 21.5 7.10789 21.3836 7.33221 21.1561C7.55621 20.9289 7.66839 20.6417 7.66839 20.3265V19.2905C8.29424 19.2055 8.89045 19.0468 9.45548 18.8129C10.3573 18.4454 11.0931 17.897 11.6468 17.1642C12.2232 16.4091 12.5 15.4981 12.5 14.4603C12.5 13.2465 12.0966 12.2235 11.2694 11.4391ZM8.3952 16.5104C8.17695 16.5933 7.93505 16.6591 7.66839 16.7067V12.4795C8.44101 12.7101 8.95683 12.9758 9.26047 13.2526L9.26279 13.2547C9.60813 13.5655 9.79627 13.9894 9.79627 14.5844C9.79627 15.0595 9.67368 15.4404 9.44659 15.752L9.44587 15.753C9.22202 16.0618 8.88288 16.3194 8.3952 16.5104ZM4.84884 5.45229C5.00181 5.38333 5.16834 5.32506 5.34909 5.27829V9.1475C4.76154 8.95136 4.33794 8.71853 4.05421 8.464C3.70123 8.13664 3.52701 7.73721 3.52701 7.22951C3.52701 6.86812 3.63074 6.53994 3.84646 6.23249C4.06568 5.92241 4.39099 5.65867 4.84884 5.45229Z" fill="white" stroke="white"/>
</svg>
