<svg width="337" height="337" viewBox="0 0 337 337" fill="none" xmlns="http://www.w3.org/2000/svg">
<path d="M0 0H337V337H0V0Z" fill="#161616"/>
<path fill-rule="evenodd" clip-rule="evenodd" d="M149.348 59.478C149.348 50.9298 156.143 44 164.526 44C172.908 44 179.704 50.9298 179.704 59.4781V163.81C179.704 168.515 181.584 173.016 184.91 176.276L254.947 244.925C261.064 250.921 261.064 260.901 254.947 266.897C249.163 272.567 240.021 272.567 234.237 266.897L156.636 190.834C151.98 186.27 149.348 179.967 149.348 173.381V59.478ZM111.457 72.452C121.571 66.8307 132.391 75.1761 132.391 86.0083C132.391 92.2545 128.814 97.6694 123.797 100.637C98.1085 115.833 81.087 143.816 81.087 175.417C81.087 222.901 119.543 262.231 168 262.231C175.545 262.231 182.843 261.278 189.79 259.491C195.27 258.081 201.365 259.294 205.653 263.519C213.425 271.18 211.606 285.205 200.295 288.463C190.033 291.418 179.197 293 168 293C103.431 293 51 240.405 51 175.417C51 131.063 75.4331 92.4736 111.457 72.452ZM254.05 221.391C249.255 216.665 248.173 209.564 250.248 203.511C253.274 194.682 254.913 185.228 254.913 175.417C254.913 141.421 235.211 111.609 206.217 97.4074C200.627 94.669 196.51 88.9911 196.51 82.3009C196.51 71.9613 206.462 63.7882 216.427 68.3475C256.851 86.8425 285 127.807 285 175.417C285 189.953 282.374 203.881 277.569 216.741C273.731 227.014 261.238 228.475 254.05 221.391Z" fill="#48A9C8"/>
</svg>
